<svg width="213" height="39" viewBox="0 0 213 39" fill="none" xmlns="http://www.w3.org/2000/svg">
<g clip-path="url(#clip0_37_4827)">
<mask id="mask0_37_4827" style="mask-type:luminance" maskUnits="userSpaceOnUse" x="0" y="0" width="213" height="39">
<path d="M213 0H0V39H213V0Z" fill="white"/>
</mask>
<g mask="url(#mask0_37_4827)">
<path fill-rule="evenodd" clip-rule="evenodd" d="M164.429 0.491761H165.049C167.578 0.491761 170.028 0.491761 172.439 0.491761C179.912 0.489277 187.004 0.486792 194.84 0.511633C197.834 0.52157 200.789 0.926474 203.564 2.16603C207.844 4.07877 210.055 7.4745 210.579 12.1073C210.863 14.6013 210.752 17.0581 210.006 19.4477C208.629 23.857 205.45 26.3361 201.143 27.367C199.156 27.8439 197.078 28.1296 195.037 28.152C189.686 28.2165 184.995 28.2091 180.026 28.1991C178.021 28.1942 175.97 28.1917 173.813 28.1917H173.284C172.995 28.1917 172.761 28.4277 172.761 28.7183V37.4672C172.761 37.7579 172.528 37.9939 172.239 37.9939H164.948C164.66 37.9939 164.426 37.7579 164.426 37.4672V0.494245C164.426 0.494245 164.426 0.491761 164.429 0.491761ZM172.789 20.1507C172.789 20.3048 172.909 20.4339 173.062 20.4463C173.227 20.4588 173.377 20.4687 173.527 20.4687C175.485 20.4687 177.347 20.4687 179.166 20.4687C184.101 20.4712 188.716 20.4737 194.027 20.4563C195.133 20.4538 196.246 20.347 197.341 20.188C200.22 19.7607 201.818 18.2281 202.252 15.5751C202.781 12.3209 201.508 9.83437 198.73 8.91278C197.77 8.59233 196.723 8.37622 195.714 8.3638C189.284 8.30915 183.729 8.29673 177.617 8.28182H177.612C176.263 8.27934 174.889 8.27437 173.473 8.27189C173.32 8.27189 173.168 8.28928 173.013 8.30915C172.887 8.32405 172.791 8.43087 172.791 8.55756V20.1483L172.789 20.1507ZM36.8428 0.529022C36.7271 0.543926 36.6409 0.640805 36.6409 0.757557V37.5293C36.6409 37.82 36.8749 38.056 37.163 38.056H65.3972C68.0172 38.0535 70.6175 37.8498 73.1612 37.1592C79.2212 35.5123 83.4714 31.883 85.2296 25.6803C86.4435 21.3953 86.4164 17.0581 85.1852 12.7656C83.821 8.00361 80.8637 4.61036 76.3968 2.55106C73.2449 1.09539 69.8985 0.529022 66.4757 0.514117C58.9062 0.481824 52.1887 0.484308 45.0649 0.489277C42.5335 0.489277 39.9504 0.491761 37.259 0.491761C37.1211 0.491761 36.9857 0.509149 36.8453 0.526538L36.8428 0.529022ZM45.4392 30.2485C45.3604 30.2435 45.2742 30.2386 45.1831 30.2336C45.1831 30.2336 45.1856 30.2336 45.1856 30.2311V8.58737C45.1856 8.43335 45.3062 8.30418 45.4589 8.29673C45.6682 8.28431 45.8652 8.27189 46.0646 8.27189C48.436 8.27189 50.6251 8.27189 52.7575 8.27189H52.7797C56.8919 8.27189 60.79 8.27189 65.3676 8.27189C67.5666 8.27189 69.7433 8.43335 71.8167 9.29284C75.1558 10.6765 76.9459 13.2698 77.5 16.7823C77.894 19.2913 77.793 21.7902 76.8622 24.1824C75.6359 27.3322 73.2055 29.0686 70.0241 29.7616C68.6451 30.0647 67.207 30.2336 65.7936 30.2435C60.5659 30.2783 56.1729 30.2734 51.3958 30.2684H51.3909C49.6204 30.2684 47.7957 30.2659 45.8578 30.2659C45.7248 30.2659 45.5894 30.256 45.4416 30.246L45.4392 30.2485ZM105.983 26.4504H105.988C111.294 26.4504 116.325 26.4504 121.728 26.4404C121.893 26.4404 122.05 26.5199 122.149 26.6541L130.322 37.7852C130.42 37.9193 130.575 37.9988 130.743 37.9988H139.706C140.134 37.9988 140.381 37.5045 140.127 37.1567L131.949 26.0206C131.737 25.73 131.868 25.3151 132.203 25.186C132.762 24.9723 133.306 24.7239 133.838 24.4457C134.473 24.1128 135.099 23.7179 135.65 23.2906C136.202 22.8634 136.712 22.3889 137.17 21.8573C137.63 21.3257 138.022 20.7718 138.376 20.1259C138.731 19.48 139.021 18.7944 139.243 18.0914C139.871 16.1116 139.989 14.0672 139.797 12.0055C139.376 7.47202 137.238 4.13838 133.072 2.22565C130.048 0.839531 126.832 0.511633 123.567 0.509149C116.204 0.499213 109.258 0.501697 102.124 0.501697C99.4131 0.501697 96.6749 0.501697 93.8801 0.501697H93.5969C93.3088 0.501697 93.0749 0.737684 93.0749 1.02832V37.4648C93.0749 37.7554 93.3088 37.9914 93.5969 37.9914H100.834C101.122 37.9914 101.356 37.7554 101.356 37.4648V26.7261C101.356 26.5845 101.464 26.4702 101.605 26.4603C101.752 26.4504 101.871 26.4454 101.989 26.4454C103.338 26.4454 104.663 26.4454 105.971 26.4454H105.98L105.983 26.4504ZM101.644 19.2267C101.573 19.2217 101.491 19.2167 101.4 19.2142C101.4 19.2142 101.4 19.2142 101.4 19.2118V8.31412C101.4 8.17749 101.506 8.06571 101.642 8.05577C101.809 8.04584 101.964 8.0359 102.122 8.0359C103.722 8.0359 105.286 8.0359 106.83 8.03342C112.511 8.02845 117.916 8.02596 123.801 8.05329C124.981 8.05826 126.185 8.17749 127.33 8.44329C130.258 9.12641 131.592 10.9373 131.499 13.8884C131.41 16.6631 129.905 18.3846 127.017 18.9286C126.086 19.1025 125.131 19.2217 124.185 19.2242C117.97 19.2465 112.269 19.2441 106.249 19.2441H106.237C104.83 19.2441 103.405 19.2441 101.952 19.2441C101.856 19.2441 101.762 19.2391 101.649 19.2316L101.644 19.2267ZM155.399 0.548894C155.687 0.548894 155.921 0.784882 155.921 1.07552V7.49189C155.921 7.78253 155.687 8.01851 155.399 8.01851H147.982C147.694 8.01851 147.46 7.78253 147.46 7.49189V1.07552C147.46 0.784882 147.694 0.548894 147.982 0.548894H155.399ZM147.982 15.8111C147.694 15.8111 147.46 16.047 147.46 16.3377V37.4797C147.46 37.7703 147.694 38.0063 147.982 38.0063H155.399C155.687 38.0063 155.921 37.7703 155.921 37.4797V16.3377C155.921 16.047 155.687 15.8111 155.399 15.8111H147.982Z" fill="url(#paint0_linear_37_4827)"/>
<path d="M9.11343 38.0041C5.9763 36.4664 4.6786 35.2964 2.7973 32.9216C5.40009 34.119 6.9588 34.6953 10.0147 35.4628C13.3562 36.3546 14.8804 37.0825 16.6903 38.9107C13.3217 39.1492 11.6473 38.9331 9.11097 38.0041H9.11343Z" fill="url(#paint1_linear_37_4827)"/>
<path d="M0 24.6643C0.0123121 26.51 0.312728 27.5409 0.901249 29.3816C2.0118 30.1616 2.71113 30.5765 4.05808 31.2869C6.26688 32.2706 7.87484 32.8345 12.45 33.9175C15.9861 35.1894 17.9659 36.6823 18.9459 38.2721C20.0836 37.9318 20.6672 37.6263 21.6521 36.9108C20.3495 34.4839 19.3621 33.2667 16.4195 31.739C13.2873 30.5293 11.4749 29.9902 8.20973 29.1084C4.73032 27.9707 2.99185 27.0168 0 24.6619L0 24.6643Z" fill="url(#paint2_linear_37_4827)"/>
<path d="M1.26324 18.5858C0.618081 19.721 0.394 21.4574 0.361989 21.9418C0.327515 22.4262 5.47153 26.1995 9.83495 27.2949C13.861 28.2513 15.8974 28.9195 18.7662 30.5615C21.1991 32.1836 22.253 33.2965 23.4571 35.7334C23.5359 35.8998 24.9986 34.4292 25.4418 33.7362C25.8875 33.0431 22.7799 27.6849 17.8625 26.115L7.30604 22.4858C4.9421 21.2909 3.67642 20.4389 1.62275 18.4939C1.44792 18.4044 1.35681 18.4094 1.26077 18.5858H1.26324Z" fill="url(#paint3_linear_37_4827)"/>
<path d="M4.14917 13.414C4.14917 13.414 2.71358 15.7714 2.52397 16.1365C2.33682 16.4992 6.37521 19.9496 9.92356 21.2165C14.0284 22.6423 16.6755 23.1367 20.3002 24.8457C23.7526 26.5448 25.065 28.152 26.8872 31.5602C27.6727 30.3852 28.0495 29.7095 28.2416 28.3855C26.0943 24.3762 24.1539 22.7144 19.761 20.4911L10.1969 17.3165C7.73447 16.1663 6.47124 15.3193 4.51361 13.414C4.35601 13.3097 4.27722 13.2848 4.15163 13.414H4.14917Z" fill="url(#paint4_linear_37_4827)"/>
<path d="M7.57937 8.60473C7.48826 8.69664 5.66853 11.1286 5.59465 11.3273C5.52078 11.5235 8.68746 14.3529 11.2779 15.4111C15.9147 16.986 18.5815 17.6666 22.5559 19.4949C25.7028 21.3182 28.6922 25.2108 28.7809 25.3027C28.872 25.3946 28.7809 22.0361 28.0594 20.1308C26.0747 17.8629 24.7622 16.6482 22.1052 15.2322L12.0905 11.603C10.2191 10.6963 9.27352 10.1473 7.85024 8.6097C7.7345 8.53518 7.67048 8.51779 7.57937 8.6097V8.60473Z" fill="url(#paint5_linear_37_4827)"/>
<path d="M14.8878 0.258403C14.5332 -0.0595586 14.3412 -0.111724 13.9866 0.258403C11.8984 2.77477 10.7583 4.1907 9.02478 6.79152C10.4284 8.70923 12.8662 10.0506 16.513 11.1461C20.5563 12.1323 22.5509 13.1632 25.8973 15.4113C22.0042 9.20853 19.5467 5.88235 14.8903 0.258403H14.8878Z" fill="url(#paint6_linear_37_4827)"/>
</g>
</g>
<defs>
<linearGradient id="paint0_linear_37_4827" x1="35.7692" y1="34.6925" x2="202.612" y2="-2.07408" gradientUnits="userSpaceOnUse">
<stop stop-color="#47C6D5"/>
<stop offset="1" stop-color="#D6F077"/>
</linearGradient>
<linearGradient id="paint1_linear_37_4827" x1="9.74381" y1="0.000166153" x2="9.74381" y2="39.0002" gradientUnits="userSpaceOnUse">
<stop stop-color="#D9F175"/>
<stop offset="1" stop-color="#44C5D7"/>
</linearGradient>
<linearGradient id="paint2_linear_37_4827" x1="10.8273" y1="-4.96497e-05" x2="10.8273" y2="39" gradientUnits="userSpaceOnUse">
<stop stop-color="#D9F175"/>
<stop offset="1" stop-color="#44C5D7"/>
</linearGradient>
<linearGradient id="paint3_linear_37_4827" x1="12.9228" y1="-9.63667e-05" x2="12.9228" y2="38.9999" gradientUnits="userSpaceOnUse">
<stop stop-color="#D9F175"/>
<stop offset="1" stop-color="#44C5D7"/>
</linearGradient>
<linearGradient id="paint4_linear_37_4827" x1="15.3803" y1="-3.17395e-05" x2="15.3803" y2="39" gradientUnits="userSpaceOnUse">
<stop stop-color="#D9F175"/>
<stop offset="1" stop-color="#44C5D7"/>
</linearGradient>
<linearGradient id="paint5_linear_37_4827" x1="17.2025" y1="-0.000107842" x2="17.2025" y2="38.9999" gradientUnits="userSpaceOnUse">
<stop stop-color="#D9F175"/>
<stop offset="1" stop-color="#44C5D7"/>
</linearGradient>
<linearGradient id="paint6_linear_37_4827" x1="17.4586" y1="5.91937e-05" x2="17.4586" y2="39.0001" gradientUnits="userSpaceOnUse">
<stop stop-color="#D9F175"/>
<stop offset="1" stop-color="#44C5D7"/>
</linearGradient>
<clipPath id="clip0_37_4827">
<rect width="213" height="39" fill="white"/>
</clipPath>
</defs>
</svg>
