<svg width="1284" height="277" viewBox="0 0 1284 277" fill="none" xmlns="http://www.w3.org/2000/svg">
<g clip-path="url(#clip0_1_6)">
<path d="M230.056 205.622V277H158.941L102.598 200.566V277H0V0H102.979V63.2452L158.541 0H230.036V71.3782L176.795 133.065L230.036 205.622H230.056Z" fill="#F39F5A"/>
<path d="M436.013 0V233.937L392.88 277H282.135L237.842 232.778V0H333.434V199.028H341.601V0H436.033H436.013Z" fill="#F39F5A"/>
<path d="M610.886 185.06V277H443.779V0H542.874V185.06H610.886Z" fill="#F39F5A"/>
<path d="M765.204 98.9343H713.525V277.02H618.712V98.9343H567.033V0H765.224V98.9343H765.204Z" fill="#F39F5A"/>
<path d="M971.161 39.5657V158.283L931.531 197.849H872.066V277H772.97V0H931.511L971.141 39.5657H971.161ZM879.852 79.1514H872.086V118.717H879.852V79.1514Z" fill="#F39F5A"/>
<path d="M1078.04 277H978.947V0H1078.04V277Z" fill="#F39F5A"/>
<path d="M1284 0V277H1212.51L1153.04 197.849V277H1085.81V0H1164.31L1216.39 67.1218V66.7422L1216.77 0.0199827H1284V0Z" fill="#F39F5A"/>
</g>
<defs>
<clipPath id="clip0_1_6">
<rect width="1284" height="277" fill="white"/>
</clipPath>
</defs>
</svg>
