<svg width="89" height="68" viewBox="0 0 89 68" fill="none" xmlns="http://www.w3.org/2000/svg">
<g clip-path="url(#clip0_1_15)">
<path d="M64.5679 0.0136552V0H18.7665L16.2152 2.92525V0H0V35.5916H13.967V68H60.6375V64.1598L63.5012 68H75.033V35.6052H83.3193V15.8886H89V0.0136552H64.5679ZM16.1729 32.4084V32.1656L16.3509 32.4084H16.1729Z" fill="white"/>
<path d="M27.7349 25.2258V33.1291H19.9178L13.7241 24.6674V33.1291H2.44729V2.46098H13.7664V9.46156L19.874 2.46098H27.7334V10.3643L21.8807 17.1934L27.7334 25.2258H27.7349Z" fill="#AE445A"/>
<path d="M50.373 2.46098V28.3619L45.6324 33.1291H33.4593L28.5904 28.2329V2.46098H39.0977V24.496H39.994V2.46098H50.373Z" fill="#AE445A"/>
<path d="M69.5952 22.9499V33.1291H51.2285V2.46098H62.1206V22.9499H69.5952Z" fill="#AE445A"/>
<path d="M86.5527 13.4276H80.8721V33.1428H70.4507V13.4276H64.7701V2.47463H86.5542V13.4276H86.5527Z" fill="#AE445A"/>
<path d="M38.2 39.2513V52.3952L33.8425 56.777H27.3079V65.5391H16.4158V34.871H33.8425L38.2 39.2528V39.2513ZM28.1619 43.6316H27.3079V48.0134H28.1619V43.6316Z" fill="#AE445A"/>
<path d="M49.946 65.5375H39.054V34.8694H49.946V65.5375Z" fill="#AE445A"/>
<path d="M72.5857 34.8694V65.5375H64.7263L58.1917 56.7754V65.5375H50.8015V34.8694H59.4304L65.1533 42.3009V42.2584L65.1971 34.8709H72.5872L72.5857 34.8694Z" fill="#AE445A"/>
</g>
<defs>
<clipPath id="clip0_1_15">
<rect width="89" height="68" fill="white"/>
</clipPath>
</defs>
</svg>
