<svg width="20" height="20" viewBox="0 0 20 20" fill="none" xmlns="http://www.w3.org/2000/svg">
<g clip-path="url(#clip0_187_31)">
<path d="M9.55582 0.831055C7.02216 0.833795 4.59306 1.8415 2.80149 3.63307C1.00992 5.42464 0.00221752 7.85374 -0.000522823 10.3874C-0.100068 18.0118 8.88608 22.6745 15.0507 18.2053C15.1799 18.1154 15.2901 18.0008 15.3748 17.8681C15.4596 17.7355 15.5173 17.5874 15.5447 17.4324C15.572 17.2774 15.5685 17.1185 15.5342 16.9649C15.5 16.8112 15.4357 16.6659 15.3451 16.5372C15.2545 16.4084 15.1393 16.2989 15.0062 16.2149C14.8731 16.1308 14.7247 16.0739 14.5696 16.0474C14.4144 16.0208 14.2555 16.0252 14.1021 16.0603C13.9486 16.0954 13.8036 16.1605 13.6754 16.2518C9.09393 19.6109 2.27946 16.0782 2.38856 10.3874C2.76444 0.8868 16.348 0.888392 16.7231 10.3874V11.5819C16.7231 11.8987 16.5972 12.2026 16.3732 12.4266C16.1492 12.6506 15.8453 12.7765 15.5285 12.7765C15.2117 12.7765 14.9079 12.6506 14.6839 12.4266C14.4598 12.2026 14.334 11.8987 14.334 11.5819V10.3874C14.1333 4.07304 4.97753 4.07384 4.77765 10.3874C4.7856 11.3134 5.06172 12.2173 5.5726 12.9897C6.08348 13.7621 6.80724 14.3699 7.6563 14.7396C8.50537 15.1093 9.44337 15.225 10.3568 15.0728C11.2703 14.9205 12.1201 14.5069 12.8034 13.8818C13.2777 14.4373 13.9105 14.8346 14.6169 15.0205C15.3234 15.2063 16.0697 15.1718 16.756 14.9216C17.4423 14.6714 18.0358 14.2175 18.4569 13.6206C18.878 13.0237 19.1066 12.3124 19.1122 11.5819V10.3874C19.1094 7.85374 18.1017 5.42464 16.3101 3.63307C14.5186 1.8415 12.0895 0.833795 9.55582 0.831055ZM9.55582 12.7765C8.92219 12.7765 8.31452 12.5248 7.86648 12.0767C7.41844 11.6287 7.16673 11.021 7.16673 10.3874C7.16673 9.75377 7.41844 9.1461 7.86648 8.69806C8.31452 8.25001 8.92219 7.99831 9.55582 7.99831C10.1894 7.99831 10.7971 8.25001 11.2452 8.69806C11.6932 9.1461 11.9449 9.75377 11.9449 10.3874C11.9449 11.021 11.6932 11.6287 11.2452 12.0767C10.7971 12.5248 10.1894 12.7765 9.55582 12.7765Z" fill="white"/>
</g>
<defs>
<clipPath id="clip0_187_31">
<rect width="19.1127" height="19.1127" fill="white" transform="translate(0 0.831055)"/>
</clipPath>
</defs>
</svg>
